<svg width="17" height="55" viewBox="0 0 17 55" fill="none" xmlns="http://www.w3.org/2000/svg">
<path d="M16.5 54.104L16.5 52.016L0.396 52.016L0.396 54.104L16.5 54.104ZM9.276 43.8777C8.844 45.9417 8.436 46.6857 7.26 46.6857C6.036 46.6857 5.412 45.6777 5.412 44.1897C5.412 42.5337 6.252 41.5017 7.764 41.1897L6.996 39.5097C5.268 39.8697 4.092 41.5737 4.116 43.9737C4.14 46.9737 5.7 48.5577 7.668 48.5577C9.708 48.5577 10.668 47.2377 11.268 44.3817C11.676 42.3657 12.108 41.5497 13.428 41.5497C14.748 41.5497 15.348 42.3897 15.348 44.1417C15.348 45.8457 14.436 46.9977 12.756 47.3097L13.74 48.8937C15.468 48.5097 16.668 46.5417 16.668 44.3097C16.668 41.4297 15.252 39.6057 12.876 39.6057C10.884 39.6057 9.972 40.8057 9.276 43.8777ZM9.276 32.534C8.844 34.598 8.436 35.342 7.26 35.342C6.036 35.342 5.412 34.334 5.412 32.846C5.412 31.19 6.252 30.158 7.764 29.846L6.996 28.166C5.268 28.526 4.092 30.23 4.116 32.63C4.14 35.63 5.7 37.214 7.668 37.214C9.708 37.214 10.668 35.894 11.268 33.038C11.676 31.022 12.108 30.206 13.428 30.206C14.748 30.206 15.348 31.046 15.348 32.798C15.348 34.502 14.436 35.654 12.756 35.966L13.74 37.55C15.468 37.166 16.668 35.198 16.668 32.966C16.668 30.086 15.252 28.262 12.876 28.262C10.884 28.262 9.972 29.462 9.276 32.534ZM4.548 16.9764L11.556 16.9764C13.716 17.0004 15.3 18.2004 15.3 20.3364C15.3 22.3044 14.052 23.1444 12.204 23.1444L4.548 23.1444L4.548 25.2084L12.492 25.2084C15.396 25.2084 16.668 23.7204 16.668 20.9844C16.668 19.0404 15.828 17.7204 13.956 16.9764L16.5 16.9764L16.5 14.9364L4.548 14.9364L4.548 16.9764ZM12.612 2.59962C14.436 3.00762 15.348 4.13562 15.348 5.74362C15.348 8.16762 13.548 9.58362 10.548 9.63162L10.548 1.01562L10.476 1.03962L10.476 1.01562C6.636 1.03962 4.164 2.93562 4.164 6.24762C4.164 9.60762 6.636 11.8396 10.428 11.8396C14.268 11.8396 16.668 9.55962 16.668 5.98362C16.668 3.36762 15.564 1.73562 13.644 0.871623L12.612 2.59962ZM5.484 6.24762C5.484 4.32762 6.684 3.43962 9.42 3.27162L9.42 9.58362C6.972 9.34362 5.484 8.21562 5.484 6.24762Z" fill="black"/>
</svg>
