<svg width="17" height="76" viewBox="0 0 17 76" fill="none" xmlns="http://www.w3.org/2000/svg">
<path d="M16.5 62.48L8.22 70.496L0.395999 62.84L0.395999 65.264L8.388 72.992L0.396 72.992L0.396 75.104L16.5 75.104L16.5 72.992L8.484 72.992L16.5 65.312L16.5 62.48ZM16.668 56.3514C16.668 52.7754 14.244 50.5434 10.428 50.5434C6.588 50.5434 4.164 52.7754 4.164 56.3514C4.164 59.9034 6.588 62.1834 10.428 62.1834C14.244 62.1834 16.668 59.9034 16.668 56.3514ZM15.348 56.3514C15.348 58.6554 13.572 59.9514 10.428 59.9514C7.26 59.9514 5.484 58.6554 5.484 56.3514C5.484 54.0234 7.26 52.7514 10.428 52.7514C13.572 52.7514 15.348 54.0234 15.348 56.3514ZM4.164 41.4957C4.164 43.4157 5.028 44.6877 6.9 45.4077L4.548 45.4077L4.548 47.4477L16.5 47.4477L16.5 45.4077L9.3 45.4077C7.212 45.3597 5.604 44.1597 5.604 42.0957C5.604 40.1757 6.876 39.3117 8.652 39.3117L16.5 39.3117L16.5 37.2717L8.46 37.2717C5.772 37.2717 4.164 38.8317 4.164 41.4957ZM15.012 28.5734C15.012 29.9414 14.34 30.5414 12.9 30.5414L5.796 30.5414L5.796 26.7014L4.548 26.2694L4.548 30.5414L1.452 30.5414L1.452 32.5814L4.548 32.5814L4.548 34.8854L5.796 35.3174L5.796 32.5814L13.356 32.5814C15.42 32.5814 16.644 31.3574 16.644 28.9814C16.644 27.8294 16.356 26.8454 15.924 26.1974L14.124 26.1974C14.652 26.8694 15.012 27.6854 15.012 28.5734ZM4.164 19.1501C4.164 21.9581 5.652 23.9981 7.524 24.2381L8.292 22.4621C6.564 22.2461 5.484 21.1901 5.484 19.2701C5.484 17.4221 6.396 16.4141 8.196 16.4141L8.652 16.4141L9.372 19.8221C9.972 22.7261 11.196 24.2381 13.26 24.2381C15.348 24.2381 16.668 22.5821 16.668 20.2061C16.668 18.4061 15.66 17.0141 14.196 16.4141L16.5 16.4141L16.5 14.3501L8.1 14.3501C5.628 14.3501 4.164 16.0781 4.164 19.1501ZM15.3 19.5101C15.3 21.0701 14.556 21.9581 13.02 21.9581C11.676 21.9581 10.812 21.0221 10.404 19.3901L9.636 16.3901L11.868 16.3901C13.812 16.3901 15.3 17.7821 15.3 19.5101ZM16.5 0.594311L9.612 6.47431L4.524 0.954311L4.548 2.85031L9.852 8.61031L0.395997 8.61031L0.395997 10.6743L16.5 10.6743L16.5 8.61031L9.948 8.61031L16.5 3.13831L16.5 0.594311Z" fill="black"/>
</svg>
