<svg width="1954" height="848" viewBox="0 0 1954 848" fill="none" xmlns="http://www.w3.org/2000/svg">
<mask id="path-1-outside-1" maskUnits="userSpaceOnUse" x="0" y="0" width="1954" height="848" fill="black">
<rect fill="white" width="1954" height="848"/>
<path d="M256.6 43.1435L62.003 779.428H183.435C202.072 779.428 216.341 768.64 226.242 747.064C236.288 725.487 245.17 681.757 252.887 615.873L260.094 619.341L246.116 826.818H5V805.435L195.01 89.9559H100.223C84.4985 89.9559 73.0688 94.5793 65.9343 103.826C58.9454 112.688 53.5581 125.788 49.7725 143.126C46.1325 160.078 42.7836 192.057 39.726 239.062H31.4267L37.542 43.1435H256.6Z"/>
<path d="M337.627 5C343.742 5 348.911 10.7793 353.134 22.3379C357.502 33.5113 359.686 47.189 359.686 63.371C359.686 79.5531 357.502 93.4235 353.134 104.982C348.911 116.541 343.742 122.32 337.627 122.32C331.512 122.32 326.27 116.541 321.902 104.982C317.534 93.4235 315.35 79.5531 315.35 63.371C315.35 47.189 317.461 33.5113 321.684 22.3379C326.052 10.7793 331.366 5 337.627 5ZM355.754 281.829V707.186C355.754 740.321 356.628 762.475 358.375 773.648C360.268 784.436 362.962 792.527 366.456 797.921C370.096 803.315 376.648 806.012 386.112 806.012V826.818H288.923V806.012C298.678 806.012 305.231 803.508 308.579 798.499C311.928 793.491 314.549 785.207 316.442 773.648C318.48 762.09 319.5 739.936 319.5 707.186V503.177C319.5 445.769 318.844 408.589 317.534 391.636C316.515 379.307 314.913 370.83 312.729 366.207C310.545 361.198 307.56 358.694 303.775 358.694C299.698 358.694 294.747 361.583 288.923 367.363L285.866 346.557L346.145 281.829H355.754Z"/>
<path d="M469.542 393.948C492.984 319.202 515.334 281.829 536.592 281.829C547.512 281.829 556.903 289.149 564.765 303.79C572.628 318.046 578.889 341.741 583.548 374.876C586.751 397.993 588.353 433.44 588.353 481.215V707.186C588.353 740.706 589.372 763.438 591.411 775.382C593.012 785.014 595.56 792.527 599.055 797.921C602.695 803.315 609.32 806.012 618.929 806.012V826.818H519.993V806.012H524.143C533.461 806.012 539.94 802.352 543.58 795.032C547.366 787.326 549.987 776.153 551.443 761.512C552.025 755.732 552.317 737.624 552.317 707.186V490.462C552.317 442.301 549.914 407.433 545.109 385.857C540.45 363.895 532.515 352.914 521.303 352.914C503.977 352.914 486.723 377.958 469.542 428.046V707.186C469.542 743.018 470.343 765.172 471.944 773.648C473.983 784.822 476.749 793.105 480.244 798.499C483.884 803.508 491.164 806.012 502.084 806.012V826.818H403.148V806.012H407.516C417.708 806.012 424.551 799.27 428.045 785.785C431.686 771.915 433.506 745.715 433.506 707.186V510.69C433.506 447.117 432.923 408.396 431.758 394.526C430.739 380.655 429.065 371.216 426.735 366.207C424.551 361.198 421.566 358.694 417.781 358.694C413.704 358.694 408.826 361.583 403.148 367.363L399.872 346.557L460.151 281.829H469.542V393.948Z"/>
<path d="M912.462 564.437H797.801L777.708 688.115C772.757 718.552 770.282 741.284 770.282 756.31C770.282 768.254 772.393 778.85 776.616 788.097C780.984 796.958 790.302 802.738 804.571 805.435V826.818H711.313V805.435C723.69 799.655 731.698 792.142 735.338 782.895C742.763 764.401 750.99 726.836 760.017 670.199L864.195 25.2276H871.839L974.925 677.134C983.224 729.533 990.723 763.631 997.421 779.428C1004.26 794.839 1013.73 803.508 1025.81 805.435V826.818H908.968V805.435C920.761 803.893 928.697 798.692 932.774 789.83C936.996 780.969 939.107 770.181 939.107 757.466C939.107 740.514 936.195 713.736 930.371 677.134L912.462 564.437ZM906.347 521.67L856.114 204.964L804.571 521.67H906.347Z"/>
<path d="M1099.85 388.746C1119.22 317.468 1140.11 281.829 1162.53 281.829C1183.06 281.829 1200.97 305.139 1216.26 351.759C1231.55 397.993 1239.19 461.373 1239.19 541.898C1239.19 635.908 1227.4 711.617 1203.81 769.025C1183.57 818.342 1161 843 1136.11 843C1124.46 843 1112.59 837.413 1100.51 826.24C1088.57 815.067 1076.34 798.307 1063.81 775.96V227.503C1063.81 167.399 1063.23 130.411 1062.07 116.541C1061.05 102.67 1059.37 93.2308 1057.04 88.2221C1054.71 83.2133 1051.8 80.709 1048.31 80.709C1044.23 80.709 1039.14 83.7913 1033.02 89.9559L1029.96 69.7283L1090.02 5H1099.85V388.746ZM1099.85 425.734V742.44C1107.28 761.704 1114.92 776.345 1122.78 786.363C1130.79 795.995 1138.95 800.811 1147.24 800.811C1160.49 800.811 1172.8 781.547 1184.15 743.018C1195.66 704.489 1201.41 648.43 1201.41 574.84C1201.41 507.029 1195.66 455.016 1184.15 418.799C1172.8 382.196 1159.84 363.895 1145.28 363.895C1137.56 363.895 1129.85 369.097 1122.13 379.499C1116.3 387.205 1108.88 402.617 1099.85 425.734Z"/>
<path d="M1319.56 5C1325.68 5 1330.85 10.7793 1335.07 22.3379C1339.44 33.5113 1341.62 47.189 1341.62 63.371C1341.62 79.5531 1339.44 93.4235 1335.07 104.982C1330.85 116.541 1325.68 122.32 1319.56 122.32C1313.45 122.32 1308.21 116.541 1303.84 104.982C1299.47 93.4235 1297.29 79.5531 1297.29 63.371C1297.29 47.189 1299.4 33.5113 1303.62 22.3379C1307.99 10.7793 1313.3 5 1319.56 5ZM1337.69 281.829V707.186C1337.69 740.321 1338.57 762.475 1340.31 773.648C1342.21 784.436 1344.9 792.527 1348.39 797.921C1352.03 803.315 1358.59 806.012 1368.05 806.012V826.818H1270.86V806.012C1280.62 806.012 1287.17 803.508 1290.52 798.499C1293.87 793.491 1296.49 785.207 1298.38 773.648C1300.42 762.09 1301.44 739.936 1301.44 707.186V503.177C1301.44 445.769 1300.78 408.589 1299.47 391.636C1298.45 379.307 1296.85 370.83 1294.67 366.207C1292.48 361.198 1289.5 358.694 1285.71 358.694C1281.64 358.694 1276.68 361.583 1270.86 367.363L1267.8 346.557L1328.08 281.829H1337.69Z"/>
<path d="M1534.47 767.291C1524.72 794.261 1515.18 813.718 1505.86 825.662C1496.54 837.221 1486.5 843 1475.72 843C1453.88 843 1434.81 818.92 1418.5 770.759C1402.19 722.212 1394.04 659.989 1394.04 584.087C1394.04 508.185 1403.07 438.834 1421.12 376.032C1439.18 312.845 1462.4 281.251 1490.79 281.251C1508.41 281.251 1522.97 296.085 1534.47 325.752V228.081C1534.47 167.591 1533.89 130.411 1532.72 116.541C1531.71 102.67 1530.03 93.2308 1527.7 88.2221C1525.37 83.2133 1522.46 80.709 1518.97 80.709C1515.18 80.709 1510.16 83.7913 1503.9 89.9559L1501.06 69.7283L1560.68 5H1570.51V617.029C1570.51 679.06 1571.02 717.011 1572.04 730.881C1573.2 744.367 1574.95 753.806 1577.28 759.2C1579.75 764.594 1582.59 767.291 1585.8 767.291C1589.73 767.291 1594.97 764.016 1601.52 757.466L1603.92 777.694L1544.52 843H1534.47V767.291ZM1534.47 726.836V454.052C1533.6 427.853 1530.98 403.965 1526.61 382.389C1522.24 360.813 1516.42 344.631 1509.14 333.843C1502 322.669 1495.01 317.083 1488.17 317.083C1475.36 317.083 1463.93 332.302 1453.88 362.739C1440.63 402.809 1434.01 461.373 1434.01 538.43C1434.01 616.258 1440.41 675.978 1453.23 717.589C1466.04 758.815 1480.31 779.428 1496.03 779.428C1509.28 779.428 1522.1 761.897 1534.47 726.836Z"/>
<path d="M1667.7 5C1673.81 5 1678.98 10.7793 1683.2 22.3379C1687.57 33.5113 1689.76 47.189 1689.76 63.371C1689.76 79.5531 1687.57 93.4235 1683.2 104.982C1678.98 116.541 1673.81 122.32 1667.7 122.32C1661.58 122.32 1656.34 116.541 1651.97 104.982C1647.6 93.4235 1645.42 79.5531 1645.42 63.371C1645.42 47.189 1647.53 33.5113 1651.75 22.3379C1656.12 10.7793 1661.44 5 1667.7 5ZM1685.83 281.829V707.186C1685.83 740.321 1686.7 762.475 1688.45 773.648C1690.34 784.436 1693.03 792.527 1696.53 797.921C1700.17 803.315 1706.72 806.012 1716.18 806.012V826.818H1618.99V806.012C1628.75 806.012 1635.3 803.508 1638.65 798.499C1642 793.491 1644.62 785.207 1646.51 773.648C1648.55 762.09 1649.57 739.936 1649.57 707.186V503.177C1649.57 445.769 1648.92 408.589 1647.6 391.636C1646.59 379.307 1644.98 370.83 1642.8 366.207C1640.62 361.198 1637.63 358.694 1633.85 358.694C1629.77 358.694 1624.82 361.583 1618.99 367.363L1615.94 346.557L1676.22 281.829H1685.83Z"/>
<path d="M1799.61 393.948C1823.05 319.202 1845.4 281.829 1866.66 281.829C1877.58 281.829 1886.97 289.149 1894.84 303.79C1902.7 318.046 1908.96 341.741 1913.62 374.876C1916.82 397.993 1918.42 433.44 1918.42 481.215V707.186C1918.42 740.706 1919.44 763.438 1921.48 775.382C1923.08 785.014 1925.63 792.527 1929.13 797.921C1932.77 803.315 1939.39 806.012 1949 806.012V826.818H1850.06V806.012H1854.21C1863.53 806.012 1870.01 802.352 1873.65 795.032C1877.44 787.326 1880.06 776.153 1881.51 761.512C1882.1 755.732 1882.39 737.624 1882.39 707.186V490.462C1882.39 442.301 1879.98 407.433 1875.18 385.857C1870.52 363.895 1862.59 352.914 1851.37 352.914C1834.05 352.914 1816.79 377.958 1799.61 428.046V707.186C1799.61 743.018 1800.41 765.172 1802.02 773.648C1804.05 784.822 1806.82 793.105 1810.31 798.499C1813.95 803.508 1821.23 806.012 1832.15 806.012V826.818H1733.22V806.012H1737.59C1747.78 806.012 1754.62 799.27 1758.12 785.785C1761.76 771.915 1763.58 745.715 1763.58 707.186V510.69C1763.58 447.117 1762.99 408.396 1761.83 394.526C1760.81 380.655 1759.14 371.216 1756.81 366.207C1754.62 361.198 1751.64 358.694 1747.85 358.694C1743.77 358.694 1738.9 361.583 1733.22 367.363L1729.94 346.557L1790.22 281.829H1799.61V393.948Z"/>
</mask>
<path d="M256.6 43.1435L62.003 779.428H183.435C202.072 779.428 216.341 768.64 226.242 747.064C236.288 725.487 245.17 681.757 252.887 615.873L260.094 619.341L246.116 826.818H5V805.435L195.01 89.9559H100.223C84.4985 89.9559 73.0688 94.5793 65.9343 103.826C58.9454 112.688 53.5581 125.788 49.7725 143.126C46.1325 160.078 42.7836 192.057 39.726 239.062H31.4267L37.542 43.1435H256.6Z" stroke="white" stroke-width="10" mask="url(#path-1-outside-1)"/>
<path d="M337.627 5C343.742 5 348.911 10.7793 353.134 22.3379C357.502 33.5113 359.686 47.189 359.686 63.371C359.686 79.5531 357.502 93.4235 353.134 104.982C348.911 116.541 343.742 122.32 337.627 122.32C331.512 122.32 326.27 116.541 321.902 104.982C317.534 93.4235 315.35 79.5531 315.35 63.371C315.35 47.189 317.461 33.5113 321.684 22.3379C326.052 10.7793 331.366 5 337.627 5ZM355.754 281.829V707.186C355.754 740.321 356.628 762.475 358.375 773.648C360.268 784.436 362.962 792.527 366.456 797.921C370.096 803.315 376.648 806.012 386.112 806.012V826.818H288.923V806.012C298.678 806.012 305.231 803.508 308.579 798.499C311.928 793.491 314.549 785.207 316.442 773.648C318.48 762.09 319.5 739.936 319.5 707.186V503.177C319.5 445.769 318.844 408.589 317.534 391.636C316.515 379.307 314.913 370.83 312.729 366.207C310.545 361.198 307.56 358.694 303.775 358.694C299.698 358.694 294.747 361.583 288.923 367.363L285.866 346.557L346.145 281.829H355.754Z" stroke="white" stroke-width="10" mask="url(#path-1-outside-1)"/>
<path d="M469.542 393.948C492.984 319.202 515.334 281.829 536.592 281.829C547.512 281.829 556.903 289.149 564.765 303.79C572.628 318.046 578.889 341.741 583.548 374.876C586.751 397.993 588.353 433.44 588.353 481.215V707.186C588.353 740.706 589.372 763.438 591.411 775.382C593.012 785.014 595.56 792.527 599.055 797.921C602.695 803.315 609.32 806.012 618.929 806.012V826.818H519.993V806.012H524.143C533.461 806.012 539.94 802.352 543.58 795.032C547.366 787.326 549.987 776.153 551.443 761.512C552.025 755.732 552.317 737.624 552.317 707.186V490.462C552.317 442.301 549.914 407.433 545.109 385.857C540.45 363.895 532.515 352.914 521.303 352.914C503.977 352.914 486.723 377.958 469.542 428.046V707.186C469.542 743.018 470.343 765.172 471.944 773.648C473.983 784.822 476.749 793.105 480.244 798.499C483.884 803.508 491.164 806.012 502.084 806.012V826.818H403.148V806.012H407.516C417.708 806.012 424.551 799.27 428.045 785.785C431.686 771.915 433.506 745.715 433.506 707.186V510.69C433.506 447.117 432.923 408.396 431.758 394.526C430.739 380.655 429.065 371.216 426.735 366.207C424.551 361.198 421.566 358.694 417.781 358.694C413.704 358.694 408.826 361.583 403.148 367.363L399.872 346.557L460.151 281.829H469.542V393.948Z" stroke="white" stroke-width="10" mask="url(#path-1-outside-1)"/>
<path d="M912.462 564.437H797.801L777.708 688.115C772.757 718.552 770.282 741.284 770.282 756.31C770.282 768.254 772.393 778.85 776.616 788.097C780.984 796.958 790.302 802.738 804.571 805.435V826.818H711.313V805.435C723.69 799.655 731.698 792.142 735.338 782.895C742.763 764.401 750.99 726.836 760.017 670.199L864.195 25.2276H871.839L974.925 677.134C983.224 729.533 990.723 763.631 997.421 779.428C1004.26 794.839 1013.73 803.508 1025.81 805.435V826.818H908.968V805.435C920.761 803.893 928.697 798.692 932.774 789.83C936.996 780.969 939.107 770.181 939.107 757.466C939.107 740.514 936.195 713.736 930.371 677.134L912.462 564.437ZM906.347 521.67L856.114 204.964L804.571 521.67H906.347Z" stroke="white" stroke-width="10" mask="url(#path-1-outside-1)"/>
<path d="M1099.85 388.746C1119.22 317.468 1140.11 281.829 1162.53 281.829C1183.06 281.829 1200.97 305.139 1216.26 351.759C1231.55 397.993 1239.19 461.373 1239.19 541.898C1239.19 635.908 1227.4 711.617 1203.81 769.025C1183.57 818.342 1161 843 1136.11 843C1124.46 843 1112.59 837.413 1100.51 826.24C1088.57 815.067 1076.34 798.307 1063.81 775.96V227.503C1063.81 167.399 1063.23 130.411 1062.07 116.541C1061.05 102.67 1059.37 93.2308 1057.04 88.2221C1054.71 83.2133 1051.8 80.709 1048.31 80.709C1044.23 80.709 1039.14 83.7913 1033.02 89.9559L1029.96 69.7283L1090.02 5H1099.85V388.746ZM1099.85 425.734V742.44C1107.28 761.704 1114.92 776.345 1122.78 786.363C1130.79 795.995 1138.95 800.811 1147.24 800.811C1160.49 800.811 1172.8 781.547 1184.15 743.018C1195.66 704.489 1201.41 648.43 1201.41 574.84C1201.41 507.029 1195.66 455.016 1184.15 418.799C1172.8 382.196 1159.84 363.895 1145.28 363.895C1137.56 363.895 1129.85 369.097 1122.13 379.499C1116.3 387.205 1108.88 402.617 1099.85 425.734Z" stroke="white" stroke-width="10" mask="url(#path-1-outside-1)"/>
<path d="M1319.56 5C1325.68 5 1330.85 10.7793 1335.07 22.3379C1339.44 33.5113 1341.62 47.189 1341.62 63.371C1341.62 79.5531 1339.44 93.4235 1335.07 104.982C1330.85 116.541 1325.68 122.32 1319.56 122.32C1313.45 122.32 1308.21 116.541 1303.84 104.982C1299.47 93.4235 1297.29 79.5531 1297.29 63.371C1297.29 47.189 1299.4 33.5113 1303.62 22.3379C1307.99 10.7793 1313.3 5 1319.56 5ZM1337.69 281.829V707.186C1337.69 740.321 1338.57 762.475 1340.31 773.648C1342.21 784.436 1344.9 792.527 1348.39 797.921C1352.03 803.315 1358.59 806.012 1368.05 806.012V826.818H1270.86V806.012C1280.62 806.012 1287.17 803.508 1290.52 798.499C1293.87 793.491 1296.49 785.207 1298.38 773.648C1300.42 762.09 1301.44 739.936 1301.44 707.186V503.177C1301.44 445.769 1300.78 408.589 1299.47 391.636C1298.45 379.307 1296.85 370.83 1294.67 366.207C1292.48 361.198 1289.5 358.694 1285.71 358.694C1281.64 358.694 1276.68 361.583 1270.86 367.363L1267.8 346.557L1328.08 281.829H1337.69Z" stroke="white" stroke-width="10" mask="url(#path-1-outside-1)"/>
<path d="M1534.47 767.291C1524.72 794.261 1515.18 813.718 1505.86 825.662C1496.54 837.221 1486.5 843 1475.72 843C1453.88 843 1434.81 818.92 1418.5 770.759C1402.19 722.212 1394.04 659.989 1394.04 584.087C1394.04 508.185 1403.07 438.834 1421.12 376.032C1439.18 312.845 1462.4 281.251 1490.79 281.251C1508.41 281.251 1522.97 296.085 1534.47 325.752V228.081C1534.47 167.591 1533.89 130.411 1532.72 116.541C1531.71 102.67 1530.03 93.2308 1527.7 88.2221C1525.37 83.2133 1522.46 80.709 1518.97 80.709C1515.18 80.709 1510.16 83.7913 1503.9 89.9559L1501.06 69.7283L1560.68 5H1570.51V617.029C1570.51 679.06 1571.02 717.011 1572.04 730.881C1573.2 744.367 1574.95 753.806 1577.28 759.2C1579.75 764.594 1582.59 767.291 1585.8 767.291C1589.73 767.291 1594.97 764.016 1601.52 757.466L1603.92 777.694L1544.52 843H1534.47V767.291ZM1534.47 726.836V454.052C1533.6 427.853 1530.98 403.965 1526.61 382.389C1522.24 360.813 1516.42 344.631 1509.14 333.843C1502 322.669 1495.01 317.083 1488.17 317.083C1475.36 317.083 1463.93 332.302 1453.88 362.739C1440.63 402.809 1434.01 461.373 1434.01 538.43C1434.01 616.258 1440.41 675.978 1453.23 717.589C1466.04 758.815 1480.31 779.428 1496.03 779.428C1509.28 779.428 1522.1 761.897 1534.47 726.836Z" stroke="white" stroke-width="10" mask="url(#path-1-outside-1)"/>
<path d="M1667.7 5C1673.81 5 1678.98 10.7793 1683.2 22.3379C1687.57 33.5113 1689.76 47.189 1689.76 63.371C1689.76 79.5531 1687.57 93.4235 1683.2 104.982C1678.98 116.541 1673.81 122.32 1667.7 122.32C1661.58 122.32 1656.34 116.541 1651.97 104.982C1647.6 93.4235 1645.42 79.5531 1645.42 63.371C1645.42 47.189 1647.53 33.5113 1651.75 22.3379C1656.12 10.7793 1661.44 5 1667.7 5ZM1685.83 281.829V707.186C1685.83 740.321 1686.7 762.475 1688.45 773.648C1690.34 784.436 1693.03 792.527 1696.53 797.921C1700.17 803.315 1706.72 806.012 1716.18 806.012V826.818H1618.99V806.012C1628.75 806.012 1635.3 803.508 1638.65 798.499C1642 793.491 1644.62 785.207 1646.51 773.648C1648.55 762.09 1649.57 739.936 1649.57 707.186V503.177C1649.57 445.769 1648.92 408.589 1647.6 391.636C1646.59 379.307 1644.98 370.83 1642.8 366.207C1640.62 361.198 1637.63 358.694 1633.85 358.694C1629.77 358.694 1624.82 361.583 1618.99 367.363L1615.94 346.557L1676.22 281.829H1685.83Z" stroke="white" stroke-width="10" mask="url(#path-1-outside-1)"/>
<path d="M1799.61 393.948C1823.05 319.202 1845.4 281.829 1866.66 281.829C1877.58 281.829 1886.97 289.149 1894.84 303.79C1902.7 318.046 1908.96 341.741 1913.62 374.876C1916.82 397.993 1918.42 433.44 1918.42 481.215V707.186C1918.42 740.706 1919.44 763.438 1921.48 775.382C1923.08 785.014 1925.63 792.527 1929.13 797.921C1932.77 803.315 1939.39 806.012 1949 806.012V826.818H1850.06V806.012H1854.21C1863.53 806.012 1870.01 802.352 1873.65 795.032C1877.44 787.326 1880.06 776.153 1881.51 761.512C1882.1 755.732 1882.39 737.624 1882.39 707.186V490.462C1882.39 442.301 1879.98 407.433 1875.18 385.857C1870.52 363.895 1862.59 352.914 1851.37 352.914C1834.05 352.914 1816.79 377.958 1799.61 428.046V707.186C1799.61 743.018 1800.41 765.172 1802.02 773.648C1804.05 784.822 1806.82 793.105 1810.31 798.499C1813.95 803.508 1821.23 806.012 1832.15 806.012V826.818H1733.22V806.012H1737.59C1747.78 806.012 1754.62 799.27 1758.12 785.785C1761.76 771.915 1763.58 745.715 1763.58 707.186V510.69C1763.58 447.117 1762.99 408.396 1761.83 394.526C1760.81 380.655 1759.14 371.216 1756.81 366.207C1754.62 361.198 1751.64 358.694 1747.85 358.694C1743.77 358.694 1738.9 361.583 1733.22 367.363L1729.94 346.557L1790.22 281.829H1799.61V393.948Z" stroke="white" stroke-width="10" mask="url(#path-1-outside-1)"/>
</svg>
