<svg width="21" height="88" viewBox="0 0 21 88" fill="none" xmlns="http://www.w3.org/2000/svg">
<path d="M0.395999 74.824L0.396 87.544L1.932 87.544L1.932 82.192L16.5 82.192L16.5 80.104L1.932 80.104L1.932 74.824L0.395999 74.824ZM12.612 65.9824C14.436 66.3904 15.348 67.5184 15.348 69.1264C15.348 71.5504 13.548 72.9664 10.548 73.0144L10.548 64.3984L10.476 64.4224L10.476 64.3984C6.636 64.4224 4.164 66.3184 4.164 69.6304C4.164 72.9904 6.636 75.2224 10.428 75.2224C14.268 75.2224 16.668 72.9424 16.668 69.3664C16.668 66.7504 15.564 65.1184 13.644 64.2544L12.612 65.9824ZM5.484 69.6304C5.484 67.7104 6.684 66.8224 9.42 66.6544L9.42 72.9664C6.972 72.7264 5.484 71.5984 5.484 69.6304ZM4.164 55.2848C4.164 57.2048 5.028 58.4768 6.9 59.1968L4.548 59.1968L4.548 61.2368L16.5 61.2368L16.5 59.1968L9.3 59.1968C7.212 59.1488 5.604 57.9488 5.604 55.8848C5.604 53.9648 6.876 53.1008 8.652 53.1008L16.5 53.1008L16.5 51.0608L8.46 51.0608C5.772 51.0608 4.164 52.6208 4.164 55.2848ZM15.012 42.3625C15.012 43.7305 14.34 44.3305 12.9 44.3305L5.796 44.3305L5.796 40.4905L4.548 40.0585L4.548 44.3305L1.452 44.3305L1.452 46.3705L4.548 46.3705L4.548 48.6745L5.796 49.1065L5.796 46.3705L13.356 46.3705C15.42 46.3705 16.644 45.1465 16.644 42.7705C16.644 41.6185 16.356 40.6345 15.924 39.9865L14.124 39.9865C14.652 40.6585 15.012 41.4745 15.012 42.3625ZM4.164 32.9391C4.164 35.7471 5.652 37.7871 7.524 38.0271L8.292 36.2511C6.564 36.0351 5.484 34.9791 5.484 33.0591C5.484 31.2111 6.396 30.2031 8.196 30.2031L8.652 30.2031L9.372 33.6111C9.972 36.5151 11.196 38.0271 13.26 38.0271C15.348 38.0271 16.668 36.3711 16.668 33.9951C16.668 32.1951 15.66 30.8031 14.196 30.2031L16.5 30.2031L16.5 28.1391L8.1 28.1391C5.628 28.1391 4.164 29.8671 4.164 32.9391ZM15.3 33.2991C15.3 34.8591 14.556 35.7471 13.02 35.7471C11.676 35.7471 10.812 34.8111 10.404 33.1791L9.636 30.1791L11.868 30.1791C13.812 30.1791 15.3 31.5711 15.3 33.2991ZM4.164 18.5114C4.164 20.4314 5.028 21.7034 6.9 22.4234L4.548 22.4234L4.548 24.4634L16.5 24.4634L16.5 22.4234L9.3 22.4234C7.212 22.3754 5.604 21.1754 5.604 19.1114C5.604 17.1914 6.876 16.3274 8.652 16.3274L16.5 16.3274L16.5 14.2874L8.46 14.2874C5.772 14.2874 4.164 15.8474 4.164 18.5114ZM4.548 2.42781L6.852 2.42781C5.124 3.09981 4.164 4.39581 4.164 6.14781C4.164 9.17181 6.516 11.2598 9.78 11.2598C13.02 11.2598 15.396 9.19581 15.396 6.24381C15.396 4.46781 14.412 3.09981 12.66 2.42781L14.652 2.42781C17.412 2.42781 18.996 3.45981 18.996 5.83581C18.996 7.77981 17.988 8.69181 16.212 9.24381L17.268 11.1158C19.068 10.3958 20.244 8.52381 20.244 5.97981C20.244 2.52381 18.54 0.387811 15.06 0.387812L4.548 0.387812L4.548 2.42781ZM14.076 5.71581C14.076 7.65981 12.348 9.00381 9.78 9.00381C7.188 9.00381 5.46 7.65981 5.46 5.71581C5.46 3.81981 7.332 2.40381 9.78 2.40381C12.228 2.40381 14.076 3.81981 14.076 5.71581Z" fill="black"/>
</svg>
